<svg xmlns="http://www.w3.org/2000/svg" width="200" height="120" viewBox="0 0 200 120" fill="none"><path d="M150.112 0.062609C151.581 1.69044 150.878 2.94262 149.409 4.19481C143.788 9.14092 137.911 13.8366 132.865 19.221C126.669 25.8575 121.175 33.1828 115.363 40.1324C115.554 40.3828 115.81 40.6333 116.001 40.8837C116.768 40.508 117.534 40.195 118.301 39.7567C122.708 37.2524 126.988 34.6228 131.46 32.2437C132.418 31.7428 133.823 32.0558 134.973 32.0558C134.909 33.1828 135.101 34.435 134.717 35.4993C134.27 36.9393 133.376 38.2541 132.29 40.3828C134.973 38.755 136.825 37.3776 138.869 36.5011C140.466 35.8124 142.383 35.8124 144.171 35.4993C144.235 37.0645 144.363 38.6298 144.427 40.195C144.427 40.508 144.427 40.8211 144.427 41.3846C147.046 40.2576 149.473 39.1933 151.964 38.1915C152.731 37.8785 153.561 37.5654 154.392 37.5028C155.989 37.3776 157.649 37.5028 159.246 37.5028C159.182 38.8802 159.118 40.2576 158.991 42.0107C159.885 41.635 160.971 41.4472 161.865 40.8837C163.718 39.6941 165.57 38.4419 167.359 37.1272C169.147 35.7498 170.68 34.5602 171.702 37.8785C171.894 38.4419 173.874 38.9428 174.641 38.6298C176.493 37.7532 178.282 36.5637 179.751 35.1863C185.5 29.9271 191.057 24.4801 196.806 19.2836C197.573 18.5949 198.914 18.5949 200 18.2818C200 18.9079 200 19.534 200 20.1601C194.187 27.6106 187.225 33.9967 180.006 40.195C173.108 46.0802 167.423 53.4055 161.61 60.4177C151.773 72.1882 142.255 84.2092 132.482 96.0423C131.779 96.8562 130.31 97.044 129.16 97.5449C129.288 96.4179 129.16 95.1031 129.671 94.164C133.504 86.8387 138.486 80.5152 145.002 75.2561C147.493 73.19 149.665 70.6856 151.836 68.3065C152.411 67.6804 152.667 66.7412 153.37 65.2386C151.198 65.1134 149.537 64.863 148.004 64.9882C136.953 66.1151 125.902 67.3673 114.788 68.3691C112.488 68.5569 110.125 68.056 107.825 67.743C107.186 67.6178 106.675 66.8664 106.1 66.3656C106.739 65.9899 107.378 65.3012 108.08 65.3012C114.021 64.863 119.962 64.4873 125.902 64.1117C135.548 63.4856 145.193 62.8595 154.839 62.1708C155.797 62.1082 157.011 61.6073 157.649 60.9186C162.504 55.1586 167.231 49.2733 171.958 43.4507C169.147 40.4454 167.295 40.195 163.973 42.0107C161.674 43.3255 159.374 44.6402 156.947 45.642C155.861 46.0803 154.392 45.7046 153.114 45.7046C153.306 44.5776 153.561 43.3881 153.753 42.2611C153.817 41.9481 153.881 41.6976 154.136 40.8211C152.667 41.1341 151.453 41.1967 150.431 41.635C144.554 44.1394 139.636 47.8333 135.676 52.7168C135.356 53.0925 135.101 53.7186 134.653 53.9064C133.887 54.282 132.993 54.4072 132.162 54.5951C132.226 53.6559 131.907 52.4664 132.418 51.9029C134.909 48.6472 137.592 45.5794 140.147 42.3863C140.913 41.3846 141.297 40.1324 141.872 38.9428C141.616 38.6924 141.424 38.5046 141.169 38.2541C139.38 39.3811 137.336 40.2576 135.867 41.7602C130.054 47.7081 124.497 53.8438 118.812 59.8542C118.045 60.6055 116.768 60.9186 115.746 61.4195C115.81 60.2925 115.426 58.9151 116.001 58.1012C119.962 52.529 124.114 47.1446 128.138 41.6976C129.352 40.0698 130.31 38.3167 131.587 36.3132C130.565 36.188 130.246 36.0628 129.99 36.188C118.812 42.1985 108.719 49.3359 101.565 60.1047C93.2609 72.5639 84.5736 84.8352 73.5228 95.2283C61.1945 106.748 47.4609 116.015 30.4056 119.27C25.2954 120.209 19.802 120.209 14.6918 119.458C6.38774 118.081 1.46918 112.821 0 104.62C0 103.368 0 102.115 0 100.863C1.78857 95.291 3.12999 89.4683 5.49345 84.1465C9.64548 74.5674 16.9275 67.1795 24.7205 60.2925C42.1591 44.9533 61.3861 32.3689 83.4238 24.2297C88.5979 22.3514 94.283 21.0992 99.7764 20.8488C109.166 20.4105 113.574 26.2332 110.699 35.0611C109.23 39.6315 106.292 43.7011 103.928 48.0211C103.034 49.649 101.948 51.089 100.926 52.6542C101.182 52.842 101.437 53.0925 101.629 53.2803C103.098 51.8403 104.823 50.5255 106.1 48.8977C111.019 42.3863 115.874 35.7498 120.6 29.1132C121.175 28.2993 121.048 27.0471 121.239 26.0454C120.984 25.8575 120.664 25.7323 120.409 25.5445C123.603 22.9775 126.86 20.4732 129.863 17.781C135.292 12.8349 140.53 7.70091 145.96 2.62958C147.046 1.62783 148.323 0.876526 149.537 0C149.665 0.062609 149.92 0.062609 150.112 0.062609ZM97.924 61.169C97.7324 60.9812 97.4768 60.7934 97.2852 60.6055C96.8381 60.7934 96.3271 61.0438 95.8799 61.169C94.7301 61.5447 93.5803 61.8577 92.4305 62.1708C92.6222 60.9186 92.5583 59.4786 93.1332 58.5394C96.0715 54.0942 99.457 49.8994 102.204 45.3289C104.567 41.4472 106.675 37.315 108.08 32.995C109.805 27.7358 106.995 24.3549 101.437 23.7914C93.5165 22.9149 86.3622 25.5445 79.3357 28.4871C57.8729 37.5028 38.9013 50.1498 22.0377 65.8021C12.0728 75.1308 5.30182 86.15 2.8106 99.4858C1.53306 106.31 4.02427 111.882 9.70936 114.888C14.2447 117.267 19.2271 117.83 24.2095 117.517C34.2383 116.828 43.3727 113.322 51.9962 108.314C67.71 99.2353 79.7189 86.4005 90.0671 71.9378C92.686 68.3691 95.305 64.7377 97.924 61.169Z" fill="#959C3A"></path></svg>